Patient4_TMGait_0pt5_02_left_41_GRF.mot
version=1
nRows=26
nColumns=19
inDegrees=no
endheader
time	F1x	F1y	F1z	M1x	M1y	M1z	F2x	F2y	F2z	M2x	M2y	M2z	EC1x	EC1y	EC1z	EC2x	EC2y	EC2z
52.89	10.248	1.7872	-8.7411	2.1781	5.9485	-4.4861	-32.7967	753.1661	-59.6818	299.1285	68.2293	719.5687	-0.0592	0.0182	-0.0073	-0.0462	0.0165	0.9585
52.903	6.6932	2.0904	-5.97	1.1705	3.9637	-2.1078	-26.5363	750.4221	-57.1661	298.6465	63.5573	715.3284	-0.0592	0.0182	-0.0073	-0.0462	0.0165	0.9585
52.916	3.7388	2.3352	-3.5446	0.29482	2.2494	-0.12829	-20.4759	748.9001	-54.8591	298.6193	59.0628	711.1394	-0.0592	0.0182	-0.0073	-0.0462	0.0165	0.9585
52.929	1.5241	2.5319	-1.6544	-0.39162	0.92989	1.3801	-14.9625	749.1212	-52.9037	299.2398	55.0111	707.5259	-0.0592	0.0182	-0.0073	-0.0462	0.0165	0.9585
52.942	0.0098594	2.6929	-0.31796	-0.88401	0.0050764	2.4489	-10.1571	751.2468	-51.3745	300.5733	51.5478	704.8028	-0.0592	0.0182	-0.0073	-0.0462	0.0165	0.9585
52.955	-0.91835	2.7985	0.52809	-1.1985	-0.57199	3.114	-6.1054	755.0693	-50.2689	302.5429	48.7042	703.0073	-0.0592	0.0182	-0.0073	-0.0462	0.0165	0.9585
52.968	-1.4299	2.8351	0.99175	-1.362	-0.8871	3.4624	-2.7809	760.088	-49.5488	304.9518	46.4516	701.925	-0.0592	0.0182	-0.0073	-0.0462	0.0165	0.9585
52.981	-1.6531	2.7558	1.1771	-1.3932	-1.0102	3.5149	-0.11713	765.6091	-49.1337	307.5221	44.701	701.1559	-0.0592	0.0182	-0.0073	-0.0462	0.0165	0.9585
52.994	-1.7279	2.5108	1.185	-1.3021	-1.0214	3.2933	1.9695	770.8387	-48.937	309.9311	43.348	700.1987	-0.0592	0.0182	-0.0073	-0.0462	0.0165	0.9585
53.007	-1.737	2.0177	1.0858	-1.0836	-0.97182	2.7415	3.5489	774.9819	-48.8697	311.8501	42.2891	698.5271	-0.0592	0.0182	-0.0073	-0.0462	0.0165	0.9585
53.02	-1.74	1.1898	0.94701	-0.72408	-0.91348	1.8007	4.6727	777.3733	-48.8453	313.0003	41.4312	695.6972	-0.0592	0.0182	-0.0073	-0.0462	0.0165	0.9585
53.033	-1.7549	-0.051116	0.79538	-0.20974	-0.85556	0.42119	5.3893	777.555	-48.7917	313.1848	40.6983	691.4165	-0.0592	0.0182	-0.0073	-0.0462	0.0165	0.9585
53.046	-1.7632	-1.7525	0.65652	0.46642	-0.80304	-1.4324	5.7565	775.2694	-48.6824	312.2873	40.054	685.5227	-0.0592	0.0182	-0.0073	-0.0462	0.0165	0.9585
53.059	-1.7246	-3.8518	0.52333	1.278	-0.72679	-3.6809	5.8603	770.4991	-48.5311	310.2911	39.4843	678.0108	-0.0592	0.0182	-0.0073	-0.0462	0.0165	0.9585
53.072	-1.5438	-6.1483	0.39858	2.1504	-0.58924	-6.1237	5.8208	763.482	-48.3729	307.2876	38.9777	669.0408	-0.0592	0.0182	-0.0073	-0.0462	0.0165	0.9585
53.085	-1.1175	-8.185	0.26299	2.9175	-0.33084	-8.2855	5.7826	754.6858	-48.2617	303.4648	38.5257	658.9279	-0.0592	0.0182	-0.0073	-0.0462	0.0165	0.9585
53.098	-0.29937	-9.2136	0.11695	3.3	0.10062	-9.4069	5.9051	744.7094	-48.2546	299.0724	38.1151	648.0742	-0.0592	0.0182	-0.0073	-0.0462	0.0165	0.9585
53.111	1.0673	-8.0954	-0.046977	2.8731	0.76097	-8.3083	6.338	734.1867	-48.4026	294.3812	37.7287	636.9068	-0.0592	0.0182	-0.0073	-0.0462	0.0165	0.9585
53.124	3.1172	-3.2762	-0.21816	1.0618	1.6799	-3.3889	7.2147	723.6558	-48.7388	289.6282	37.3436	625.7762	-0.0592	0.0182	-0.0073	-0.0462	0.0165	0.9585
53.137	5.9121	7.1762	-0.36797	-2.844	2.8374	7.3392	8.6039	713.4067	-49.2768	284.9525	36.9486	614.8597	-0.0592	0.0182	-0.0073	-0.0462	0.0165	0.9585
53.15	9.3448	25.3745	-0.43809	-9.6208	4.1269	26.0595	10.4943	703.3147	-49.984	280.3325	36.527	604.02	-0.0592	0.0182	-0.0073	-0.0462	0.0165	0.9585
53.163	13.0822	53.2088	-0.32672	-19.9612	5.3132	54.7256	12.7653	692.7792	-50.7552	275.5577	36.0453	592.7784	-0.0592	0.0182	-0.0073	-0.0462	0.0165	0.9585
53.176	16.3832	91.6641	0.0996	-34.2198	5.9864	94.3793	15.2096	680.7049	-51.3789	270.2218	35.416	580.2848	-0.0592	0.0182	-0.0073	-0.0462	0.0165	0.9585
53.189	18.0263	139.7802	1.0216	-52.0293	5.5121	144.0491	17.572	665.5937	-51.574	263.7604	34.5093	565.3758	-0.0592	0.0182	-0.0073	-0.0462	0.0165	0.9585
53.202	16.5555	193.6541	2.6673	-71.9292	3.1397	199.7496	19.579	645.8342	-51.0404	255.5617	33.1819	546.8085	-0.0592	0.0182	-0.0073	-0.0462	0.0165	0.9585
53.215	11.8841	246.607	5.4318	-91.4257	-1.5356	254.56	21.0145	620.1916	-49.5848	245.1559	31.3623	523.6264	-0.0592	0.0182	-0.0073	-0.0462	0.0165	0.9585
